<?xml version="1.0" encoding="utf-8"?>
<!-- Generator: Adobe Illustrator 24.3.0, SVG Export Plug-In . SVG Version: 6.00 Build 0)  -->
<svg version="1.1" id="Layer_1" xmlns="http://www.w3.org/2000/svg" xmlns:xlink="http://www.w3.org/1999/xlink" x="0px" y="0px"
	 viewBox="0 0 16 16" style="enable-background:new 0 0 16 16;" xml:space="preserve">
<style type="text/css">
	.st0{fill-rule:evenodd;clip-rule:evenodd;fill:#7C4212;}
	.st1{fill-rule:evenodd;clip-rule:evenodd;fill:#884F14;}
	.st2{fill-rule:evenodd;clip-rule:evenodd;fill:#875314;}
	.st3{fill-rule:evenodd;clip-rule:evenodd;fill:#B57F13;}
	.st4{fill-rule:evenodd;clip-rule:evenodd;fill:#F4DF52;}
	.st5{fill-rule:evenodd;clip-rule:evenodd;fill:#EAC339;}
	.st6{fill-rule:evenodd;clip-rule:evenodd;fill:#996514;}
	.st7{fill-rule:evenodd;clip-rule:evenodd;fill:#CF991E;}
	.st8{fill:#875314;}
	.st9{fill:#895415;}
	.st10{fill:#CF991E;}
</style>
<g>
	<g>
		<polygon class="st0" points="5.06,2.56 5.3,2.72 5.53,2.53 5.54,2.3 5.06,2.3 		"/>
		<polygon class="st1" points="8.13,2.3 8.03,2.56 8.37,2.72 8.62,2.54 8.61,2.3 		"/>
		<path class="st0" d="M7.98,0.79c-0.23,0-0.45,0.04-0.65,0.11l0.06,0.57l0.38,0.19C7.83,1.65,7.9,1.64,7.98,1.64
			c0.32,0,0.6,0.14,0.81,0.37L9.26,1.8L9.22,1.25C8.88,0.96,8.45,0.79,7.98,0.79z"/>
		<path class="st1" d="M11.22,2.33l0.02,0.21l0.21,0.17l0.14-0.06l-0.02-0.15C11.47,2.43,11.35,2.37,11.22,2.33z"/>
		<polygon class="st2" points="5.3,2.72 5.86,4.35 6.84,5.38 7.99,4.48 8.37,2.72 6.71,2.49 		"/>
		<polygon class="st2" points="8.37,2.72 8.93,4.26 9.91,5.38 10.96,4.38 11.44,2.72 9.79,2.51 		"/>
		<path class="st2" d="M11.75,2.72l-0.17-0.06l-0.14,0.06l0.08,0.6l0.4,0.23L11.9,3.22C11.9,3.04,11.85,2.87,11.75,2.72z"/>
		<polygon class="st3" points="3.91,5.38 5.3,8.04 6.37,7.02 6.84,5.38 5.28,4.85 		"/>
		<polygon class="st3" points="6.84,5.38 7.19,6.99 8.37,8.04 9.74,7.15 9.91,5.38 8.33,5.08 		"/>
		<polygon class="st3" points="11.23,4.95 9.91,5.38 10.35,6.95 11.44,8.04 11.96,7.56 12.13,6.85 12.04,5.38 		"/>
		<path class="st4" d="M5.3,8.04L4.37,9.07l-0.45,1.37c0.17,0.16,0.39,0.26,0.64,0.26h2.28l-0.4-1.57L5.3,8.04z"/>
		<polygon class="st4" points="8.37,8.04 7.44,9.19 6.84,10.69 9.91,10.69 9.48,9 		"/>
		<path class="st4" d="M12.06,8.43l-0.61-0.4l-1.07,1.02l-0.47,1.64h1.48c0.5,0,0.92-0.41,0.92-0.92L12.29,9.5L12.06,8.43z"/>
		<path class="st5" d="M3.64,9.78c0,0.25,0.1,0.48,0.28,0.66l0.62-1.07L5.3,8.04H3.77L3.64,9.78z"/>
		<polygon class="st6" points="3.21,5.41 4.58,3.03 1.85,3.03 		"/>
		<polygon class="st7" points="2.22,7.65 4.28,7.65 3.24,5.85 		"/>
		<polygon class="st5" points="5.3,8.04 6.07,9.37 6.84,10.69 7.61,9.37 8.37,8.04 6.84,8.04 		"/>
		<path class="st2" d="M4.96,2.3c-0.25,0-0.48,0.1-0.64,0.27l0,0l0,0l0,0C4.27,2.62,4.23,2.67,4.2,2.72h1.1L5.06,2.3H4.96z"/>
		<polygon class="st6" points="5.3,2.72 3.91,5.38 5.3,5.38 6.84,5.38 6.07,4.05 		"/>
		<polygon class="st7" points="6.84,5.38 6.07,6.71 5.3,8.04 6.84,8.04 8.37,8.04 7.61,6.71 		"/>
		<polygon class="st5" points="8.37,8.04 9.14,9.37 9.91,10.69 10.68,9.37 11.44,8.04 9.91,8.04 		"/>
		<path class="st0" d="M6.99,2.3c0.13-0.33,0.43-0.57,0.78-0.64L7.61,1.39L7.32,0.9C6.71,1.13,6.24,1.66,6.1,2.3H5.54L5.3,2.72h3.07
			L8.13,2.3H6.99z"/>
		<polygon class="st6" points="8.37,2.72 7.61,4.05 6.84,5.38 8.37,5.38 9.91,5.38 9.14,4.05 		"/>
		<polygon class="st7" points="9.91,5.38 9.14,6.71 8.37,8.04 9.91,8.04 11.44,8.04 10.68,6.71 		"/>
		<polygon class="st5" points="11.44,8.04 12.21,9.37 12.29,9.5 12.2,8.04 		"/>
		<path class="st0" d="M10.99,2.3H9.85C9.76,1.89,9.54,1.52,9.22,1.25L9.14,1.39L8.78,2.01C8.86,2.1,8.92,2.2,8.96,2.3H8.61
			L8.37,2.72h3.07l-0.22-0.38C11.15,2.31,11.07,2.3,10.99,2.3z"/>
		<polygon class="st6" points="11.44,2.72 10.68,4.05 9.91,5.38 11.44,5.38 12.04,5.38 11.92,3.55 		"/>
		<polygon class="st7" points="11.44,8.04 12.2,8.04 12.13,6.85 		"/>
		<path class="st0" d="M11.56,2.51l-0.12,0.21h0.31c-0.03-0.05-0.07-0.1-0.12-0.15C11.61,2.55,11.59,2.53,11.56,2.51z"/>
		<polygon class="st3" points="1.9,6.81 2.77,5.3 1.04,5.3 		"/>
	</g>
	<g>
		<path class="st8" d="M2.27,12.68v0.11H1.62v-0.99h0.13v0.88H2.27z"/>
		<path class="st8" d="M3.2,11.81v0.58c0,0.09-0.01,0.15-0.02,0.19c-0.05,0.16-0.17,0.25-0.38,0.25c-0.11,0-0.2-0.02-0.26-0.06
			c-0.07-0.05-0.11-0.11-0.13-0.2c-0.01-0.04-0.01-0.1-0.01-0.17v-0.58h0.13v0.58c0,0.06,0,0.11,0.01,0.13
			c0.02,0.13,0.11,0.19,0.27,0.19c0.11,0,0.19-0.03,0.23-0.1c0.02-0.03,0.03-0.08,0.03-0.13c0-0.02,0-0.05,0-0.09v-0.58H3.2z"/>
		<path class="st8" d="M4.14,11.81l-0.33,0.48l0.35,0.51H4l-0.2-0.31c-0.02-0.03-0.04-0.07-0.06-0.11c-0.02,0.03-0.04,0.06-0.07,0.1
			L3.46,12.8H3.31l0.35-0.51l-0.33-0.48h0.16l0.17,0.26c0.04,0.06,0.06,0.1,0.08,0.13c0.03-0.05,0.06-0.09,0.08-0.13l0.18-0.26H4.14
			z"/>
		<path class="st8" d="M5.06,11.81v0.58c0,0.09-0.01,0.15-0.02,0.19C5,12.74,4.87,12.82,4.67,12.82c-0.11,0-0.2-0.02-0.26-0.06
			c-0.07-0.05-0.11-0.11-0.13-0.2c-0.01-0.04-0.01-0.1-0.01-0.17v-0.58H4.4v0.58c0,0.06,0,0.11,0.01,0.13
			c0.02,0.13,0.11,0.19,0.27,0.19c0.11,0,0.19-0.03,0.23-0.1c0.02-0.03,0.03-0.08,0.03-0.13c0-0.02,0-0.05,0-0.09v-0.58H5.06z"/>
		<path class="st8" d="M5.28,11.81h0.45c0.08,0,0.15,0.01,0.19,0.04C6,11.9,6.04,11.98,6.04,12.08c0,0.08-0.02,0.14-0.07,0.19
			c-0.03,0.03-0.06,0.04-0.1,0.06c0.05,0.01,0.08,0.03,0.11,0.07C6,12.42,6.01,12.46,6.02,12.5c0,0.01,0.01,0.06,0.01,0.13
			c0.01,0.08,0.02,0.14,0.04,0.16l0.01,0.01H5.93c-0.01-0.01-0.01-0.02-0.02-0.04c0-0.02-0.01-0.07-0.01-0.15
			c-0.01-0.11-0.03-0.17-0.08-0.2c-0.03-0.02-0.08-0.03-0.16-0.03H5.41v0.43H5.28V11.81z M5.41,11.92v0.34h0.25
			c0.06,0,0.1,0,0.13-0.01c0.04-0.01,0.07-0.03,0.1-0.06c0.02-0.03,0.03-0.06,0.03-0.11c0-0.05-0.02-0.09-0.05-0.12
			c-0.02-0.02-0.05-0.03-0.09-0.04c-0.02,0-0.05-0.01-0.09-0.01H5.41z"/>
		<path class="st8" d="M7.04,11.81l-0.38,0.58v0.41H6.53v-0.41l-0.39-0.58H6.3l0.23,0.37c0.03,0.04,0.05,0.08,0.06,0.11
			c0.02-0.03,0.04-0.07,0.06-0.1l0.23-0.37H7.04z"/>
		<path class="st8" d="M8.05,12.1H7.93c-0.01-0.06-0.03-0.11-0.06-0.14c-0.04-0.04-0.11-0.06-0.19-0.06c-0.06,0-0.11,0.01-0.15,0.03
			C7.48,11.96,7.46,12,7.46,12.06c0,0.05,0.02,0.08,0.05,0.1s0.11,0.04,0.22,0.07c0.07,0.02,0.13,0.03,0.16,0.04
			c0.07,0.02,0.12,0.06,0.16,0.11c0.03,0.04,0.05,0.09,0.05,0.15c0,0.09-0.04,0.17-0.11,0.23c-0.06,0.05-0.16,0.08-0.27,0.08
			c-0.1,0-0.18-0.02-0.25-0.06c-0.1-0.06-0.16-0.16-0.16-0.29h0.13c0,0.06,0.02,0.11,0.05,0.15c0.05,0.06,0.13,0.09,0.24,0.09
			c0.08,0,0.14-0.02,0.18-0.05c0.04-0.03,0.06-0.08,0.06-0.13c0-0.04-0.01-0.07-0.04-0.1c-0.03-0.03-0.07-0.05-0.13-0.07
			c-0.02,0-0.06-0.01-0.12-0.03c-0.09-0.02-0.15-0.04-0.17-0.04c-0.06-0.02-0.1-0.05-0.13-0.08c-0.03-0.04-0.05-0.09-0.05-0.15
			c0-0.09,0.03-0.16,0.1-0.21c0.06-0.05,0.14-0.07,0.25-0.07c0.16,0,0.27,0.05,0.33,0.15C8.04,11.98,8.05,12.03,8.05,12.1z"/>
		<path class="st8" d="M9.05,11.81v0.99H8.92v-0.46H8.4v0.46H8.27v-0.99H8.4v0.41h0.52v-0.41H9.05z"/>
		<path class="st8" d="M9.72,11.79c0.14,0,0.25,0.05,0.34,0.14c0.09,0.09,0.13,0.22,0.13,0.37c0,0.14-0.04,0.25-0.1,0.34
			c-0.09,0.12-0.21,0.18-0.37,0.18s-0.29-0.06-0.37-0.18c-0.07-0.09-0.1-0.2-0.1-0.34c0-0.16,0.04-0.29,0.13-0.38
			C9.46,11.83,9.58,11.79,9.72,11.79z M9.71,11.9c-0.1,0-0.19,0.04-0.25,0.11c-0.07,0.07-0.1,0.17-0.1,0.3
			c0,0.12,0.03,0.21,0.08,0.28c0.03,0.04,0.08,0.08,0.13,0.1c0.04,0.02,0.09,0.03,0.13,0.03c0.09,0,0.17-0.03,0.23-0.09
			c0.07-0.08,0.11-0.18,0.11-0.31c0-0.12-0.03-0.22-0.09-0.3C9.9,11.93,9.81,11.9,9.71,11.9z"/>
		<path class="st8" d="M10.37,11.81h0.39c0.07,0,0.12,0,0.16,0.02c0.06,0.02,0.11,0.05,0.14,0.1c0.03,0.04,0.05,0.1,0.05,0.17
			c0,0.11-0.04,0.2-0.12,0.25c-0.04,0.03-0.08,0.04-0.13,0.05c-0.02,0-0.05,0-0.09,0H10.5v0.41h-0.13V11.81z M10.5,11.92v0.36h0.25
			c0.07,0,0.12-0.01,0.16-0.04c0.04-0.03,0.07-0.08,0.07-0.15c0-0.07-0.03-0.12-0.08-0.15c-0.02-0.01-0.05-0.02-0.08-0.03
			c-0.02,0-0.05,0-0.08,0H10.5z"/>
		<path class="st8" d="M11.26,11.81h0.39c0.07,0,0.12,0,0.16,0.02c0.06,0.02,0.11,0.05,0.14,0.1c0.03,0.04,0.05,0.1,0.05,0.17
			c0,0.11-0.04,0.2-0.12,0.25c-0.04,0.03-0.08,0.04-0.13,0.05c-0.02,0-0.05,0-0.09,0H11.4v0.41h-0.13V11.81z M11.4,11.92v0.36h0.25
			c0.07,0,0.12-0.01,0.16-0.04c0.04-0.03,0.07-0.08,0.07-0.15c0-0.07-0.03-0.12-0.08-0.15c-0.02-0.01-0.05-0.02-0.08-0.03
			c-0.02,0-0.05,0-0.08,0H11.4z"/>
		<path class="st8" d="M12.29,11.81v0.99h-0.13v-0.99H12.29z"/>
		<path class="st8" d="M13.32,11.81v0.99h-0.14l-0.35-0.53c-0.09-0.14-0.15-0.23-0.18-0.3c0,0.05,0.01,0.13,0.01,0.24l0,0.09v0.5
			h-0.12v-0.99h0.14l0.37,0.56c0.08,0.11,0.13,0.2,0.17,0.27c-0.01-0.13-0.01-0.24-0.01-0.34v-0.5H13.32z"/>
		<path class="st8" d="M14.41,12.28v0.52h-0.08l-0.02-0.08c0-0.02-0.01-0.04-0.01-0.05c-0.08,0.1-0.19,0.15-0.32,0.15
			c-0.16,0-0.28-0.06-0.37-0.17c-0.07-0.09-0.1-0.2-0.1-0.34c0-0.16,0.04-0.28,0.13-0.38c0.09-0.1,0.2-0.14,0.35-0.14
			c0.13,0,0.24,0.04,0.32,0.12c0.06,0.06,0.09,0.13,0.1,0.21h-0.13c-0.01-0.04-0.03-0.08-0.06-0.12c-0.05-0.06-0.13-0.1-0.23-0.1
			c-0.11,0-0.2,0.04-0.26,0.12c-0.06,0.07-0.09,0.17-0.09,0.29c0,0.11,0.03,0.2,0.08,0.27c0.06,0.08,0.15,0.13,0.27,0.13
			c0.09,0,0.16-0.03,0.22-0.08c0.06-0.06,0.09-0.14,0.09-0.24h-0.32v-0.11H14.41z"/>
	</g>
	<g>
		<path class="st9" d="M4,13.8c0.06,0,0.11,0.02,0.16,0.06s0.06,0.09,0.06,0.16v0.3c0,0.06-0.02,0.1-0.06,0.14
			c-0.04,0.04-0.09,0.06-0.14,0.06H3.8c-0.06,0-0.12-0.02-0.16-0.07s-0.07-0.1-0.07-0.16v-0.16c0-0.01,0-0.01,0.01-0.01h0.05
			c0.01,0,0.01,0,0.01,0.01v0.16c0,0.04,0.01,0.08,0.04,0.11c0.03,0.03,0.06,0.04,0.11,0.04h0.21c0.04,0,0.06-0.01,0.09-0.04
			c0.03-0.03,0.04-0.06,0.04-0.09v-0.01H4c-0.06,0-0.11-0.02-0.16-0.06s-0.06-0.09-0.06-0.16v-0.08c0-0.06,0.02-0.11,0.06-0.16
			S3.94,13.8,4,13.8z M4.14,14.02c0-0.04-0.01-0.07-0.04-0.1c-0.03-0.03-0.06-0.04-0.1-0.04s-0.07,0.01-0.1,0.04
			c-0.03,0.03-0.04,0.06-0.04,0.1v0.08c0,0.04,0.01,0.07,0.04,0.1s0.06,0.04,0.1,0.04h0.14V14.02z M3.9,13.7
			c-0.01,0-0.01,0-0.01-0.01v-0.06c0-0.01,0-0.01,0.01-0.01h0.05c0.01,0,0.01,0,0.01,0.01v0.06c0,0.01,0,0.01-0.01,0.01H3.9z
			 M4.04,13.7c-0.01,0-0.01,0-0.01-0.01v-0.06c0-0.01,0-0.01,0.01-0.01h0.05c0.01,0,0.01,0,0.01,0.01v0.06c0,0.01,0,0.01-0.01,0.01
			H4.04z"/>
		<path class="st9" d="M4.97,14.24v0.08H4.81v0.01c0,0.06-0.02,0.1-0.06,0.14c-0.04,0.04-0.09,0.06-0.14,0.06H4.5
			c-0.01,0-0.01,0-0.01-0.01v-0.05c0-0.01,0-0.01,0.01-0.01H4.6c0.03,0,0.06-0.01,0.09-0.04s0.04-0.06,0.04-0.09v-0.01H4.59
			c-0.06,0-0.11-0.02-0.16-0.06s-0.06-0.09-0.06-0.16v-0.08c0-0.06,0.02-0.11,0.06-0.15c0.04-0.04,0.09-0.06,0.16-0.06
			c0.06,0,0.11,0.02,0.15,0.06c0.04,0.04,0.06,0.09,0.06,0.15v0.22H4.97z M4.73,14.02c0-0.04-0.01-0.07-0.04-0.1
			c-0.03-0.03-0.06-0.04-0.1-0.04c-0.04,0-0.07,0.01-0.1,0.04c-0.03,0.03-0.04,0.06-0.04,0.1v0.08c0,0.04,0.01,0.07,0.04,0.1
			c0.03,0.03,0.06,0.04,0.1,0.04h0.14V14.02z"/>
		<path class="st9" d="M4.94,14.24h0.21v0.08H4.94V14.24z"/>
		<path class="st9" d="M5.14,14.24h0.21v0.08H5.14V14.24z"/>
		<path class="st9" d="M6.25,14.32H6.22c-0.05,0-0.08-0.01-0.11-0.04c0,0,0,0,0,0c0,0,0,0,0,0c0,0,0,0.01-0.01,0.01
			C6.07,14.3,6.04,14.32,6,14.32H5.95c-0.05,0-0.09-0.01-0.11-0.04l0,0c0,0,0,0,0,0c0,0,0,0,0,0h0c-0.02,0.02-0.06,0.04-0.1,0.04
			H5.68c-0.05,0-0.09-0.01-0.11-0.04c0,0,0,0,0,0l0,0c0,0,0,0,0,0c-0.02,0.02-0.06,0.04-0.1,0.04H5.33v-0.08h0.13
			c0.02,0,0.03,0,0.04-0.01c0.01-0.01,0.01-0.02,0.01-0.04v-0.35c0-0.01,0-0.01,0.01-0.01h0.05c0.01,0,0.01,0,0.01,0.01v0.36
			c0,0.01,0,0.02,0.01,0.03c0.01,0.01,0.03,0.02,0.06,0.02h0.07c0.02,0,0.03,0,0.04-0.01c0.01-0.01,0.01-0.02,0.01-0.04v-0.32
			c0-0.01,0-0.01,0.01-0.01h0.05c0.01,0,0.01,0,0.01,0.01v0.34c0,0.01,0,0.02,0.01,0.03c0.01,0.01,0.03,0.02,0.06,0.02H6
			c0.02,0,0.03,0,0.04-0.01c0.01-0.01,0.01-0.02,0.01-0.04v-0.35c0-0.01,0-0.01,0.01-0.01h0.05c0.01,0,0.01,0,0.01,0.01v0.35
			c0,0.01,0,0.03,0.01,0.04c0.01,0.01,0.03,0.02,0.06,0.02h0.05V14.32z"/>
		<path class="st9" d="M6.23,14.24h0.21v0.08H6.23V14.24z"/>
		<path class="st9" d="M6.43,14.24h0.21v0.08H6.43V14.24z"/>
		<path class="st9" d="M7.06,14.32H7.02c-0.05,0-0.09-0.01-0.11-0.04c0,0,0,0,0,0s0,0,0,0l0,0h0c-0.02,0.02-0.06,0.04-0.1,0.04H6.63
			v-0.08h0.18c0.02,0,0.03,0,0.04-0.01c0.01-0.01,0.01-0.02,0.01-0.04v-0.35c0-0.01,0-0.01,0.01-0.01h0.05c0.01,0,0.01,0,0.01,0.01
			v0.36c0,0.01,0,0.02,0.01,0.03c0.01,0.01,0.03,0.02,0.06,0.02h0.05V14.32z M6.81,13.7c-0.01,0-0.01,0-0.01-0.01v-0.06
			c0-0.01,0-0.01,0.01-0.01h0.05c0.01,0,0.01,0,0.01,0.01v0.06c0,0.01,0,0.01-0.01,0.01H6.81z M6.95,13.7c-0.01,0-0.01,0-0.01-0.01
			v-0.06c0-0.01,0-0.01,0.01-0.01H7c0.01,0,0.01,0,0.01,0.01v0.06c0,0.01,0,0.01-0.01,0.01H6.95z"/>
		<path class="st9" d="M7.27,13.57c0.01,0,0.01,0,0.01,0.01v0.6c0,0.04-0.01,0.07-0.04,0.1c-0.02,0.02-0.06,0.04-0.1,0.04H7.03
			v-0.08h0.12c0,0,0,0,0,0c0.02,0,0.03,0,0.04-0.01c0.01-0.01,0.01-0.02,0.01-0.04v-0.6c0-0.01,0-0.01,0.01-0.01H7.27z"/>
		<path class="st9" d="M7.53,14.3c0,0.01,0,0.01-0.01,0.01H7.47c-0.01,0-0.01,0-0.01-0.01v-0.72c0-0.01,0-0.01,0.01-0.01h0.05
			c0.01,0,0.01,0,0.01,0.01V14.3z"/>
		<path class="st9" d="M8.54,14.24v0.08H8.16c-0.06,0-0.11-0.02-0.15-0.06c-0.04-0.04-0.06-0.09-0.06-0.16v-0.08
			c0-0.06,0.02-0.11,0.06-0.16c0.04-0.04,0.09-0.06,0.15-0.06s0.11,0.02,0.16,0.06s0.06,0.09,0.06,0.16v0.22H8.54z M8.3,14.02
			c0-0.04-0.01-0.07-0.04-0.1c-0.03-0.03-0.06-0.04-0.1-0.04s-0.07,0.01-0.1,0.04c-0.03,0.03-0.04,0.06-0.04,0.1v0.08
			c0,0.04,0.01,0.07,0.04,0.1s0.06,0.04,0.1,0.04H8.3V14.02z M8.05,13.7c-0.01,0-0.01,0-0.01-0.01v-0.06c0-0.01,0-0.01,0.01-0.01
			H8.1c0.01,0,0.01,0,0.01,0.01v0.06c0,0.01,0,0.01-0.01,0.01H8.05z M8.19,13.7c-0.01,0-0.01,0-0.01-0.01v-0.06
			c0-0.01,0-0.01,0.01-0.01h0.05c0.01,0,0.01,0,0.01,0.01v0.06c0,0.01,0,0.01-0.01,0.01H8.19z"/>
		<path class="st9" d="M8.5,14.24h0.21v0.08H8.5V14.24z"/>
		<path class="st9" d="M9.1,14.32H9.07c-0.05,0-0.09-0.01-0.11-0.04c0,0,0,0,0,0c0,0,0,0,0,0c0,0,0,0,0,0
			c-0.02,0.02-0.06,0.04-0.1,0.04H8.69v-0.08h0.16c0.02,0,0.03,0,0.04-0.01s0.01-0.02,0.01-0.04v-0.35c0-0.01,0-0.01,0.01-0.01h0.05
			c0.01,0,0.01,0,0.01,0.01v0.36c0,0.01,0,0.02,0.01,0.03c0.01,0.01,0.03,0.02,0.06,0.02H9.1V14.32z M8.85,14.42
			c0.01,0,0.01,0,0.01,0.01v0.06c0,0.01,0,0.01-0.01,0.01H8.8c-0.01,0-0.01,0-0.01-0.01v-0.06c0-0.01,0-0.01,0.01-0.01H8.85z
			 M8.99,14.42c0.01,0,0.02,0,0.02,0.01v0.06c0,0.01,0,0.01-0.02,0.01H8.94c-0.01,0-0.01,0-0.01-0.01v-0.06c0-0.01,0-0.01,0.01-0.01
			H8.99z"/>
		<path class="st9" d="M9.08,14.24h0.21v0.08H9.08V14.24z"/>
		<path class="st9" d="M9.28,14.24h0.21v0.08H9.28V14.24z"/>
		<path class="st9" d="M10,13.76c0.06,0,0.12,0.02,0.16,0.07c0.04,0.04,0.07,0.1,0.07,0.16v0.1c0,0.06-0.02,0.12-0.07,0.16
			c-0.04,0.04-0.1,0.07-0.16,0.07H9.48v-0.08h0.2c-0.02-0.03-0.03-0.06-0.03-0.09v-0.09c0-0.04,0.01-0.08,0.04-0.11
			s0.06-0.05,0.1-0.06c0.02-0.04,0.05-0.07,0.08-0.1C9.91,13.77,9.95,13.76,10,13.76z M9.92,14.24v-0.17c0-0.03-0.01-0.05-0.03-0.07
			c-0.02-0.02-0.04-0.03-0.07-0.03S9.77,13.98,9.75,14c-0.02,0.02-0.03,0.04-0.03,0.07v0.09c0,0.02,0.01,0.04,0.03,0.06
			s0.04,0.03,0.06,0.03H9.92z M10.15,13.99c0-0.04-0.01-0.08-0.04-0.11c-0.03-0.03-0.07-0.04-0.11-0.04c-0.05,0-0.09,0.02-0.12,0.06
			c0.04,0.01,0.06,0.03,0.08,0.06c0.02,0.03,0.03,0.06,0.03,0.1v0.17h0c0.04,0,0.08-0.01,0.11-0.04c0.03-0.03,0.04-0.06,0.04-0.11
			V13.99z"/>
		<path class="st9" d="M10.53,14.32c-0.04,0-0.07-0.01-0.1-0.04c-0.02-0.02-0.04-0.06-0.04-0.1v-0.6c0-0.01,0-0.01,0.01-0.01h0.05
			c0.01,0,0.01,0,0.01,0.01v0.6c0,0.02,0,0.03,0.01,0.04c0.01,0.01,0.02,0.01,0.04,0.01h0.05v0.08H10.53z"/>
		<path class="st9" d="M10.55,14.24h0.21v0.08h-0.21V14.24z"/>
		<path class="st9" d="M10.76,14.24h0.21v0.08h-0.21V14.24z"/>
		<path class="st9" d="M10.96,14.24h0.21v0.08h-0.21V14.24z"/>
		<path class="st9" d="M11.54,13.8c0.06,0,0.11,0.02,0.16,0.06c0.04,0.04,0.07,0.09,0.07,0.16v0.26c0,0.01,0,0.02-0.01,0.03
			c-0.01,0.01-0.02,0.01-0.03,0.01h-0.57v-0.08h0.22c-0.04-0.04-0.05-0.09-0.05-0.14v-0.08c0-0.06,0.02-0.11,0.06-0.16
			S11.48,13.8,11.54,13.8z M11.69,14.02c0-0.04-0.01-0.07-0.04-0.1c-0.03-0.03-0.06-0.04-0.1-0.04c-0.04,0-0.07,0.01-0.1,0.04
			c-0.03,0.03-0.04,0.06-0.04,0.1v0.08c0,0.04,0.01,0.07,0.04,0.1s0.06,0.04,0.1,0.04h0.14V14.02z M11.51,13.7
			c-0.01,0-0.01,0-0.01-0.01v-0.06c0-0.01,0-0.01,0.01-0.01h0.05c0.01,0,0.01,0,0.01,0.01v0.06c0,0.01,0,0.01-0.01,0.01H11.51z"/>
		<path class="st9" d="M12.04,13.82c0.01,0,0.01,0,0.01,0.01v0.52c0,0.05-0.02,0.1-0.05,0.13s-0.07,0.05-0.13,0.05h-0.05
			c-0.01,0-0.01,0-0.01-0.01v-0.05c0-0.01,0-0.01,0.01-0.01h0.05c0.04,0,0.06-0.01,0.08-0.02c0.02-0.02,0.02-0.04,0.02-0.08v-0.52
			c0-0.01,0-0.01,0.01-0.01H12.04z"/>
	</g>
	<g>
		<path class="st10" d="M2.45,15.21c3.68-0.02,7.35-0.02,11.03,0C9.8,15.23,6.12,15.23,2.45,15.21z"/>
	</g>
</g>
</svg>
