<?xml version="1.0" encoding="utf-8"?>
<!-- Generator: Adobe Illustrator 24.3.0, SVG Export Plug-In . SVG Version: 6.00 Build 0)  -->
<svg version="1.1" id="Layer_1" xmlns="http://www.w3.org/2000/svg" xmlns:xlink="http://www.w3.org/1999/xlink" x="0px" y="0px"
	 viewBox="0 0 16 16" style="enable-background:new 0 0 16 16;" xml:space="preserve">
<style type="text/css">
	.st0{fill-rule:evenodd;clip-rule:evenodd;fill:#7C4212;}
	.st1{fill-rule:evenodd;clip-rule:evenodd;fill:#884F14;}
	.st2{fill-rule:evenodd;clip-rule:evenodd;fill:#875314;}
	.st3{fill-rule:evenodd;clip-rule:evenodd;fill:#B57F13;}
	.st4{fill-rule:evenodd;clip-rule:evenodd;fill:#F4DF52;}
	.st5{fill-rule:evenodd;clip-rule:evenodd;fill:#EAC339;}
	.st6{fill-rule:evenodd;clip-rule:evenodd;fill:#996514;}
	.st7{fill-rule:evenodd;clip-rule:evenodd;fill:#CF991E;}
	.st8{fill:#875314;}
	.st9{fill:#895415;}
	.st10{fill:#CF991E;}
</style>
<g>
	<g>
		<polygon class="st0" points="2.34,6.7 2.44,6.76 2.54,6.69 2.54,6.6 2.35,6.6 		"/>
		<polygon class="st1" points="3.6,6.6 3.56,6.7 3.7,6.76 3.8,6.69 3.8,6.6 		"/>
		<path class="st0" d="M3.54,5.98c-0.09,0-0.18,0.02-0.27,0.05L3.3,6.26l0.15,0.08c0.03-0.01,0.06-0.01,0.09-0.01
			c0.13,0,0.25,0.06,0.33,0.15l0.19-0.09L4.05,6.16C3.91,6.05,3.73,5.98,3.54,5.98z"/>
		<path class="st1" d="M4.86,6.61l0.01,0.09l0.08,0.07l0.06-0.02L5,6.68C4.96,6.65,4.91,6.62,4.86,6.61z"/>
		<polygon class="st2" points="2.44,6.76 2.67,7.43 3.07,7.85 3.54,7.48 3.7,6.76 3.02,6.67 		"/>
		<polygon class="st2" points="3.7,6.76 3.93,7.4 4.33,7.85 4.76,7.44 4.95,6.76 4.28,6.68 		"/>
		<path class="st2" d="M5.08,6.76L5.01,6.74L4.95,6.76l0.03,0.25L5.15,7.1L5.14,6.97C5.14,6.9,5.12,6.83,5.08,6.76z"/>
		<polygon class="st3" points="1.88,7.85 2.44,8.94 2.88,8.52 3.07,7.85 2.43,7.64 		"/>
		<polygon class="st3" points="3.07,7.85 3.22,8.51 3.7,8.94 4.26,8.58 4.33,7.85 3.68,7.73 		"/>
		<polygon class="st3" points="4.87,7.68 4.33,7.85 4.51,8.49 4.95,8.94 5.16,8.74 5.23,8.45 5.2,7.85 		"/>
		<path class="st4" d="M2.44,8.94L2.06,9.36L1.88,9.92c0.07,0.07,0.16,0.11,0.26,0.11h0.93L2.91,9.38L2.44,8.94z"/>
		<polygon class="st4" points="3.7,8.94 3.32,9.41 3.07,10.02 4.33,10.02 4.15,9.33 		"/>
		<path class="st4" d="M5.2,9.1L4.95,8.94L4.52,9.35l-0.19,0.67h0.61c0.21,0,0.38-0.17,0.38-0.38L5.3,9.54L5.2,9.1z"/>
		<path class="st5" d="M1.77,9.65c0,0.1,0.04,0.2,0.11,0.27l0.25-0.44l0.31-0.54H1.82L1.77,9.65z"/>
		<polygon class="st6" points="1.59,7.86 2.15,6.89 1.03,6.89 		"/>
		<polygon class="st7" points="1.18,8.78 2.02,8.78 1.6,8.05 		"/>
		<polygon class="st5" points="2.44,8.94 2.76,9.48 3.07,10.02 3.39,9.48 3.7,8.94 3.07,8.94 		"/>
		<path class="st2" d="M2.31,6.6c-0.1,0-0.2,0.04-0.26,0.11l0,0l0,0l0,0C2.02,6.72,2.01,6.74,1.99,6.76h0.45L2.35,6.6H2.31z"/>
		<polygon class="st6" points="2.44,6.76 1.88,7.85 2.44,7.85 3.07,7.85 2.76,7.31 		"/>
		<polygon class="st7" points="3.07,7.85 2.76,8.39 2.44,8.94 3.07,8.94 3.7,8.94 3.39,8.39 		"/>
		<polygon class="st5" points="3.7,8.94 4.01,9.48 4.33,10.02 4.64,9.48 4.95,8.94 4.33,8.94 		"/>
		<path class="st0" d="M3.13,6.6c0.06-0.13,0.17-0.23,0.32-0.26L3.39,6.22l-0.12-0.2C3.02,6.11,2.83,6.33,2.77,6.6H2.54l-0.1,0.17
			H3.7L3.6,6.6H3.13z"/>
		<polygon class="st6" points="3.7,6.76 3.39,7.31 3.07,7.85 3.7,7.85 4.33,7.85 4.01,7.31 		"/>
		<polygon class="st7" points="4.33,7.85 4.01,8.39 3.7,8.94 4.33,8.94 4.95,8.94 4.64,8.39 		"/>
		<polygon class="st5" points="4.95,8.94 5.27,9.48 5.3,9.54 5.26,8.94 		"/>
		<path class="st0" d="M4.77,6.6H4.3C4.27,6.42,4.18,6.28,4.05,6.16L4.01,6.22L3.87,6.48C3.9,6.51,3.92,6.55,3.94,6.6H3.8L3.7,6.76
			h1.25L4.86,6.61C4.83,6.6,4.8,6.6,4.77,6.6z"/>
		<polygon class="st6" points="4.95,6.76 4.64,7.31 4.33,7.85 4.95,7.85 5.2,7.85 5.15,7.1 		"/>
		<polygon class="st7" points="4.95,8.94 5.26,8.94 5.23,8.45 		"/>
		<path class="st0" d="M5,6.68L4.95,6.76h0.13C5.07,6.74,5.05,6.72,5.03,6.71C5.02,6.7,5.01,6.69,5,6.68z"/>
		<polygon class="st3" points="1.05,8.44 1.41,7.82 0.7,7.82 		"/>
	</g>
	<g>
		<path class="st8" d="M6.18,8v0.08H5.71V7.37H5.8V8H6.18z"/>
		<path class="st8" d="M6.85,7.37v0.42c0,0.06,0,0.11-0.01,0.14C6.8,8.04,6.71,8.1,6.57,8.1c-0.08,0-0.14-0.02-0.19-0.05
			C6.33,8.02,6.3,7.97,6.29,7.91C6.28,7.88,6.28,7.84,6.28,7.78V7.37h0.09v0.42c0,0.04,0,0.08,0.01,0.1
			c0.02,0.09,0.08,0.14,0.19,0.14C6.65,8.02,6.7,8,6.73,7.95c0.01-0.02,0.02-0.06,0.02-0.1c0-0.02,0-0.04,0-0.07V7.37H6.85z"/>
		<path class="st8" d="M7.52,7.37L7.29,7.72l0.25,0.37H7.42L7.28,7.86C7.26,7.84,7.25,7.81,7.23,7.79C7.22,7.8,7.2,7.83,7.18,7.86
			L7.03,8.08H6.92l0.25-0.37L6.94,7.37h0.11l0.12,0.19C7.2,7.6,7.22,7.63,7.23,7.65c0.02-0.03,0.04-0.06,0.06-0.1l0.13-0.19H7.52z"
			/>
		<path class="st8" d="M8.19,7.37v0.42c0,0.06,0,0.11-0.01,0.14C8.14,8.04,8.05,8.1,7.9,8.1c-0.08,0-0.14-0.02-0.19-0.05
			C7.67,8.02,7.64,7.97,7.62,7.91C7.62,7.88,7.61,7.84,7.61,7.78V7.37h0.09v0.42c0,0.04,0,0.08,0.01,0.1
			C7.73,7.97,7.79,8.02,7.9,8.02c0.08,0,0.14-0.02,0.16-0.07c0.01-0.02,0.02-0.06,0.02-0.1c0-0.02,0-0.04,0-0.07V7.37H8.19z"/>
		<path class="st8" d="M8.34,7.37h0.33c0.06,0,0.11,0.01,0.14,0.03c0.06,0.04,0.09,0.09,0.09,0.16c0,0.06-0.02,0.1-0.05,0.13
			C8.82,7.72,8.8,7.73,8.77,7.74C8.8,7.75,8.83,7.76,8.85,7.79c0.01,0.02,0.02,0.05,0.03,0.08c0,0.01,0,0.04,0.01,0.09
			c0,0.06,0.01,0.1,0.03,0.11l0.01,0.01H8.81c0-0.01-0.01-0.02-0.01-0.03c0-0.01-0.01-0.05-0.01-0.11c0-0.08-0.02-0.12-0.05-0.15
			C8.71,7.78,8.67,7.77,8.62,7.77H8.43v0.31H8.34V7.37z M8.43,7.45V7.7h0.18c0.04,0,0.07,0,0.1-0.01c0.03-0.01,0.05-0.02,0.07-0.04
			C8.79,7.63,8.8,7.6,8.8,7.57c0-0.04-0.01-0.07-0.03-0.09C8.75,7.47,8.73,7.46,8.7,7.46c-0.02,0-0.04,0-0.06,0H8.43z"/>
		<path class="st8" d="M9.61,7.37L9.34,7.79v0.29H9.24V7.79L8.96,7.37h0.11l0.17,0.27c0.02,0.03,0.04,0.06,0.05,0.08
			C9.3,7.69,9.32,7.67,9.34,7.64L9.5,7.37H9.61z"/>
		<path class="st8" d="M10.34,7.58h-0.09c0-0.04-0.02-0.08-0.04-0.1c-0.03-0.03-0.08-0.05-0.14-0.05c-0.04,0-0.08,0.01-0.11,0.02
			C9.92,7.48,9.91,7.51,9.91,7.55c0,0.03,0.01,0.06,0.04,0.07s0.08,0.03,0.16,0.05c0.05,0.01,0.09,0.02,0.11,0.03
			c0.05,0.02,0.09,0.04,0.11,0.08c0.02,0.03,0.04,0.06,0.04,0.1c0,0.07-0.03,0.12-0.08,0.16c-0.05,0.04-0.11,0.05-0.2,0.05
			c-0.07,0-0.13-0.01-0.18-0.04C9.83,8.02,9.79,7.95,9.79,7.85h0.09c0,0.05,0.01,0.08,0.04,0.11c0.04,0.04,0.1,0.06,0.17,0.06
			c0.06,0,0.1-0.01,0.13-0.04c0.03-0.03,0.04-0.06,0.04-0.09c0-0.03-0.01-0.05-0.03-0.07c-0.02-0.02-0.05-0.03-0.09-0.05
			c-0.01,0-0.04-0.01-0.08-0.02C10,7.74,9.96,7.73,9.95,7.72C9.9,7.71,9.87,7.69,9.85,7.66C9.83,7.64,9.82,7.6,9.82,7.56
			c0-0.06,0.02-0.11,0.07-0.15c0.04-0.03,0.1-0.05,0.18-0.05c0.11,0,0.19,0.04,0.24,0.11C10.32,7.49,10.33,7.53,10.34,7.58z"/>
		<path class="st8" d="M11.05,7.37v0.71h-0.09V7.75h-0.38v0.33h-0.09V7.37h0.09v0.3h0.38v-0.3H11.05z"/>
		<path class="st8" d="M11.53,7.35c0.1,0,0.18,0.03,0.24,0.1c0.06,0.07,0.09,0.16,0.09,0.27c0,0.1-0.02,0.18-0.07,0.25
			c-0.06,0.08-0.15,0.13-0.27,0.13c-0.11,0-0.2-0.04-0.27-0.13c-0.05-0.06-0.07-0.15-0.07-0.24c0-0.12,0.03-0.21,0.09-0.27
			C11.34,7.39,11.43,7.35,11.53,7.35z M11.53,7.43c-0.07,0-0.13,0.02-0.18,0.08c-0.05,0.05-0.07,0.12-0.07,0.21
			c0,0.09,0.02,0.15,0.06,0.2c0.02,0.03,0.06,0.06,0.09,0.07c0.03,0.01,0.06,0.02,0.1,0.02c0.07,0,0.12-0.02,0.17-0.07
			c0.05-0.05,0.08-0.13,0.08-0.23c0-0.09-0.02-0.16-0.07-0.21C11.66,7.46,11.6,7.43,11.53,7.43z"/>
		<path class="st8" d="M12,7.37h0.28c0.05,0,0.08,0,0.11,0.01c0.04,0.01,0.08,0.04,0.1,0.07c0.02,0.03,0.03,0.07,0.03,0.12
			c0,0.08-0.03,0.14-0.08,0.18c-0.03,0.02-0.06,0.03-0.09,0.03c-0.01,0-0.04,0-0.07,0h-0.19v0.29H12V7.37z M12.09,7.45v0.26h0.18
			c0.05,0,0.09-0.01,0.11-0.03c0.03-0.02,0.05-0.06,0.05-0.11c0-0.05-0.02-0.09-0.06-0.11c-0.02-0.01-0.04-0.02-0.06-0.02
			c-0.01,0-0.03,0-0.06,0H12.09z"/>
		<path class="st8" d="M12.64,7.37h0.28c0.05,0,0.08,0,0.11,0.01c0.04,0.01,0.08,0.04,0.1,0.07c0.02,0.03,0.03,0.07,0.03,0.12
			c0,0.08-0.03,0.14-0.08,0.18C13.06,7.77,13.03,7.78,13,7.79c-0.01,0-0.04,0-0.07,0h-0.19v0.29h-0.09V7.37z M12.74,7.45v0.26h0.18
			c0.05,0,0.09-0.01,0.11-0.03c0.03-0.02,0.05-0.06,0.05-0.11c0-0.05-0.02-0.09-0.06-0.11c-0.02-0.01-0.04-0.02-0.06-0.02
			c-0.01,0-0.03,0-0.06,0H12.74z"/>
		<path class="st8" d="M13.38,7.37v0.71h-0.09V7.37H13.38z"/>
		<path class="st8" d="M14.12,7.37v0.71h-0.1L13.76,7.7c-0.06-0.1-0.11-0.17-0.13-0.21c0,0.04,0,0.09,0.01,0.17l0,0.07v0.36h-0.09
			V7.37h0.1l0.27,0.41c0.05,0.08,0.09,0.15,0.12,0.19c0-0.09-0.01-0.18-0.01-0.24V7.37H14.12z"/>
		<path class="st8" d="M14.9,7.71v0.38h-0.06l-0.01-0.05c0-0.01-0.01-0.03-0.01-0.03c-0.06,0.07-0.13,0.11-0.23,0.11
			c-0.11,0-0.2-0.04-0.26-0.12c-0.05-0.07-0.08-0.15-0.08-0.24c0-0.11,0.03-0.2,0.1-0.28c0.06-0.07,0.14-0.1,0.25-0.1
			c0.1,0,0.17,0.03,0.23,0.09c0.04,0.04,0.06,0.09,0.07,0.15H14.8c0-0.03-0.02-0.06-0.04-0.09c-0.04-0.05-0.09-0.07-0.17-0.07
			c-0.08,0-0.14,0.03-0.19,0.09c-0.04,0.05-0.06,0.12-0.06,0.21c0,0.08,0.02,0.15,0.06,0.2c0.05,0.06,0.11,0.09,0.19,0.09
			c0.07,0,0.12-0.02,0.16-0.06c0.04-0.04,0.06-0.1,0.06-0.17h-0.23V7.71H14.9z"/>
	</g>
	<g>
		<path class="st9" d="M7.88,8.78c0.04,0,0.07,0.01,0.1,0.04C8,8.85,8.02,8.88,8.02,8.91V9.1c0,0.03-0.01,0.06-0.04,0.09
			C7.95,9.21,7.92,9.23,7.89,9.23H7.76c-0.04,0-0.07-0.01-0.1-0.04c-0.03-0.03-0.04-0.06-0.04-0.1v-0.1c0-0.01,0-0.01,0.01-0.01
			h0.03c0.01,0,0.01,0,0.01,0.01v0.1c0,0.03,0.01,0.05,0.03,0.06c0.02,0.02,0.04,0.03,0.06,0.03h0.13c0.02,0,0.04-0.01,0.06-0.02
			C7.96,9.14,7.97,9.12,7.97,9.1v0H7.88c-0.04,0-0.07-0.01-0.1-0.04S7.75,9,7.75,8.96V8.91c0-0.04,0.01-0.07,0.04-0.1
			C7.81,8.79,7.84,8.78,7.88,8.78z M7.97,8.91c0-0.02-0.01-0.04-0.03-0.06C7.93,8.83,7.91,8.83,7.88,8.83
			c-0.02,0-0.04,0.01-0.06,0.03C7.8,8.87,7.79,8.89,7.79,8.91v0.05c0,0.02,0.01,0.05,0.03,0.06c0.02,0.02,0.04,0.03,0.06,0.03h0.09
			V8.91z M7.82,8.72C7.81,8.72,7.81,8.71,7.82,8.72L7.81,8.67c0-0.01,0-0.01,0.01-0.01h0.03c0.01,0,0.01,0,0.01,0.01v0.03
			c0,0.01,0,0.01-0.01,0.01H7.82z M7.91,8.72C7.9,8.72,7.9,8.71,7.91,8.72L7.9,8.67c0-0.01,0-0.01,0.01-0.01h0.03
			c0.01,0,0.01,0,0.01,0.01v0.03c0,0.01,0,0.01-0.01,0.01H7.91z"/>
		<path class="st9" d="M8.48,9.05V9.1h-0.1v0.01c0,0.03-0.01,0.06-0.04,0.09C8.32,9.22,8.29,9.23,8.26,9.23H8.19
			c-0.01,0-0.01,0-0.01-0.01V9.19c0,0,0-0.01,0.01-0.01h0.07c0.02,0,0.04-0.01,0.06-0.02c0.02-0.02,0.02-0.04,0.02-0.06V9.1H8.25
			c-0.04,0-0.07-0.01-0.1-0.04S8.11,9,8.11,8.96V8.91c0-0.04,0.01-0.07,0.04-0.09s0.06-0.04,0.1-0.04c0.04,0,0.07,0.01,0.1,0.04
			s0.04,0.06,0.04,0.09v0.14H8.48z M8.33,8.91c0-0.02-0.01-0.04-0.03-0.06C8.29,8.83,8.27,8.83,8.25,8.83
			c-0.02,0-0.05,0.01-0.06,0.03C8.17,8.87,8.16,8.89,8.16,8.91v0.05c0,0.02,0.01,0.05,0.03,0.06C8.2,9.04,8.22,9.05,8.25,9.05h0.09
			V8.91z"/>
		<path class="st9" d="M8.46,9.05h0.13V9.1H8.46V9.05z"/>
		<path class="st9" d="M8.58,9.05h0.13V9.1H8.58V9.05z"/>
		<path class="st9" d="M9.27,9.1H9.25c-0.03,0-0.05-0.01-0.07-0.03c0,0,0,0,0,0l0,0c0,0,0,0,0,0.01C9.16,9.09,9.14,9.1,9.12,9.1
			H9.08c-0.03,0-0.05-0.01-0.07-0.02c0,0,0,0,0,0c0,0,0,0,0,0C9,9.09,8.98,9.1,8.95,9.1H8.92c-0.03,0-0.05-0.01-0.07-0.02
			c0,0,0,0,0,0c0,0,0,0,0,0C8.83,9.09,8.81,9.1,8.79,9.1H8.71V9.05h0.08c0.01,0,0.02,0,0.02-0.01c0.01,0,0.01-0.01,0.01-0.03V8.8
			c0-0.01,0-0.01,0.01-0.01h0.03c0.01,0,0.01,0,0.01,0.01v0.22c0,0.01,0,0.01,0.01,0.02c0.01,0.01,0.02,0.01,0.04,0.01h0.04
			c0.01,0,0.02,0,0.02-0.01c0.01,0,0.01-0.01,0.01-0.03v-0.2c0-0.01,0-0.01,0.01-0.01h0.03c0.01,0,0.01,0,0.01,0.01v0.21
			c0,0.01,0,0.01,0.01,0.02c0.01,0.01,0.02,0.01,0.04,0.01h0.04c0.01,0,0.02,0,0.03-0.01c0.01,0,0.01-0.01,0.01-0.03V8.8
			c0-0.01,0-0.01,0.01-0.01h0.03c0.01,0,0.01,0,0.01,0.01v0.22c0,0.01,0,0.02,0.01,0.02c0.01,0.01,0.02,0.01,0.03,0.01h0.03V9.1z"/>
		<path class="st9" d="M9.26,9.05h0.13V9.1H9.26V9.05z"/>
		<path class="st9" d="M9.38,9.05h0.13V9.1H9.38V9.05z"/>
		<path class="st9" d="M9.77,9.1H9.75c-0.03,0-0.05-0.01-0.07-0.02c0,0,0,0,0,0c0,0,0,0,0,0l0,0h0C9.66,9.09,9.64,9.1,9.61,9.1H9.5
			V9.05h0.11c0.01,0,0.02,0,0.03-0.01c0.01,0,0.01-0.01,0.01-0.03V8.8c0-0.01,0-0.01,0.01-0.01h0.03c0.01,0,0.01,0,0.01,0.01v0.22
			c0,0.01,0,0.01,0,0.02c0.01,0.01,0.02,0.01,0.04,0.01h0.03V9.1z M9.61,8.72C9.61,8.72,9.6,8.71,9.61,8.72L9.6,8.67
			c0-0.01,0-0.01,0.01-0.01h0.03c0.01,0,0.01,0,0.01,0.01v0.04c0,0.01,0,0.01-0.01,0.01H9.61z M9.7,8.72
			C9.69,8.72,9.69,8.71,9.7,8.72L9.69,8.67c0-0.01,0-0.01,0.01-0.01h0.03c0.01,0,0.01,0,0.01,0.01v0.04c0,0.01,0,0.01-0.01,0.01H9.7
			z"/>
		<path class="st9" d="M9.9,8.64C9.91,8.64,9.91,8.64,9.9,8.64l0.01,0.38c0,0.03-0.01,0.04-0.02,0.06C9.87,9.09,9.85,9.1,9.83,9.1
			H9.75V9.05h0.07c0.01,0,0.02,0,0.03-0.01c0.01-0.01,0.01-0.01,0.01-0.03V8.64c0-0.01,0-0.01,0.01-0.01H9.9z"/>
		<path class="st9" d="M10.06,9.09C10.06,9.09,10.06,9.1,10.06,9.09L10.02,9.1c-0.01,0-0.01,0-0.01-0.01V8.64
			c0-0.01,0-0.01,0.01-0.01h0.03c0.01,0,0.01,0,0.01,0.01V9.09z"/>
		<path class="st9" d="M10.68,9.05V9.1h-0.24c-0.04,0-0.07-0.01-0.09-0.04S10.31,9,10.31,8.96V8.91c0-0.04,0.01-0.07,0.04-0.1
			c0.03-0.03,0.06-0.04,0.09-0.04c0.04,0,0.07,0.01,0.1,0.04c0.03,0.03,0.04,0.06,0.04,0.1v0.14H10.68z M10.54,8.91
			c0-0.02-0.01-0.04-0.03-0.06c-0.02-0.02-0.04-0.03-0.06-0.03s-0.04,0.01-0.06,0.03c-0.02,0.02-0.03,0.04-0.03,0.06v0.05
			c0,0.02,0.01,0.05,0.03,0.06c0.02,0.02,0.04,0.03,0.06,0.03h0.09V8.91z M10.38,8.72C10.37,8.72,10.37,8.71,10.38,8.72l-0.01-0.05
			c0-0.01,0-0.01,0.01-0.01h0.03c0.01,0,0.01,0,0.01,0.01v0.04c0,0.01,0,0.01-0.01,0.01H10.38z M10.46,8.72
			C10.46,8.72,10.46,8.71,10.46,8.72l-0.01-0.05c0-0.01,0-0.01,0.01-0.01h0.03c0.01,0,0.01,0,0.01,0.01v0.04
			c0,0.01,0,0.01-0.01,0.01H10.46z"/>
		<path class="st9" d="M10.65,9.05h0.13V9.1h-0.13V9.05z"/>
		<path class="st9" d="M11.03,9.1H11c-0.03,0-0.05-0.01-0.07-0.02c0,0,0,0,0,0l0,0c0,0,0,0,0,0C10.92,9.09,10.9,9.1,10.87,9.1h-0.1
			V9.05h0.1c0.01,0,0.02,0,0.03-0.01c0.01,0,0.01-0.01,0.01-0.03V8.8c0-0.01,0-0.01,0.01-0.01h0.03c0.01,0,0.01,0,0.01,0.01v0.22
			c0,0.01,0,0.01,0.01,0.02c0.01,0.01,0.02,0.01,0.04,0.01h0.03V9.1z M10.87,9.16C10.88,9.16,10.88,9.16,10.87,9.16l0.01,0.05
			c0,0.01,0,0.01-0.01,0.01h-0.03c-0.01,0-0.01,0-0.01-0.01V9.17c0-0.01,0-0.01,0.01-0.01H10.87z M10.96,9.16
			C10.96,9.16,10.97,9.16,10.96,9.16l0.01,0.05c0,0.01,0,0.01-0.01,0.01h-0.03c-0.01,0-0.01,0-0.01-0.01V9.17
			c0-0.01,0-0.01,0.01-0.01H10.96z"/>
		<path class="st9" d="M11.01,9.05h0.13V9.1h-0.13V9.05z"/>
		<path class="st9" d="M11.14,9.05h0.13V9.1h-0.13V9.05z"/>
		<path class="st9" d="M11.58,8.76c0.04,0,0.07,0.01,0.1,0.04s0.04,0.06,0.04,0.1v0.06c0,0.04-0.01,0.07-0.04,0.1
			s-0.06,0.04-0.1,0.04h-0.32V9.05h0.12C11.37,9.03,11.36,9.02,11.36,9V8.94c0-0.03,0.01-0.05,0.02-0.07
			c0.02-0.02,0.04-0.03,0.06-0.04c0.01-0.03,0.03-0.05,0.05-0.06C11.52,8.76,11.55,8.76,11.58,8.76z M11.53,9.05V8.94
			c0-0.02-0.01-0.03-0.02-0.04c-0.01-0.01-0.03-0.02-0.04-0.02c-0.02,0-0.03,0.01-0.04,0.02c-0.01,0.01-0.02,0.02-0.02,0.04V9
			c0,0.02,0,0.03,0.02,0.04s0.02,0.02,0.04,0.02H11.53z M11.67,8.9c0-0.03-0.01-0.05-0.03-0.07S11.6,8.8,11.58,8.8
			c-0.03,0-0.06,0.01-0.08,0.04c0.02,0.01,0.04,0.02,0.05,0.04c0.01,0.02,0.02,0.04,0.02,0.06v0.11h0c0.03,0,0.05-0.01,0.07-0.03
			s0.03-0.04,0.03-0.07V8.9z"/>
		<path class="st9" d="M11.9,9.1c-0.03,0-0.04-0.01-0.06-0.02s-0.02-0.04-0.02-0.06V8.64c0-0.01,0-0.01,0.01-0.01h0.03
			c0.01,0,0.01,0,0.01,0.01v0.37c0,0.01,0,0.02,0.01,0.03c0.01,0.01,0.01,0.01,0.03,0.01h0.03V9.1H11.9z"/>
		<path class="st9" d="M11.92,9.05h0.13V9.1h-0.13V9.05z"/>
		<path class="st9" d="M12.04,9.05h0.13V9.1h-0.13V9.05z"/>
		<path class="st9" d="M12.17,9.05h0.13V9.1h-0.13V9.05z"/>
		<path class="st9" d="M12.53,8.78c0.04,0,0.07,0.01,0.1,0.04c0.03,0.03,0.04,0.06,0.04,0.1v0.16c0,0.01,0,0.01-0.01,0.02
			S12.65,9.1,12.64,9.1h-0.35V9.05h0.14C12.41,9.03,12.4,9,12.4,8.96V8.91c0-0.04,0.01-0.07,0.04-0.1
			C12.46,8.79,12.49,8.78,12.53,8.78z M12.62,8.91c0-0.02-0.01-0.04-0.03-0.06c-0.02-0.02-0.04-0.03-0.06-0.03s-0.04,0.01-0.06,0.03
			c-0.02,0.02-0.03,0.04-0.03,0.06v0.05c0,0.02,0.01,0.05,0.03,0.06c0.02,0.02,0.04,0.03,0.06,0.03h0.09V8.91z M12.51,8.72
			C12.5,8.72,12.5,8.71,12.51,8.72L12.5,8.67c0-0.01,0-0.01,0.01-0.01h0.03c0.01,0,0.01,0,0.01,0.01v0.04c0,0.01,0,0.01-0.01,0.01
			H12.51z"/>
		<path class="st9" d="M12.84,8.79C12.84,8.79,12.85,8.79,12.84,8.79l0.01,0.33c0,0.03-0.01,0.06-0.03,0.08
			c-0.02,0.02-0.05,0.03-0.08,0.03h-0.03c0,0-0.01,0-0.01-0.01V9.19c0-0.01,0-0.01,0.01-0.01h0.03c0.02,0,0.04,0,0.05-0.01
			c0.01-0.01,0.02-0.03,0.02-0.05V8.8c0-0.01,0-0.01,0.01-0.01H12.84z"/>
	</g>
	<g>
		<path class="st10" d="M6.31,9.82h7.92H6.31z"/>
	</g>
</g>
</svg>
