<?xml version="1.0" standalone="no"?>
<!DOCTYPE svg PUBLIC "-//W3C//DTD SVG 20010904//EN"
 "http://www.w3.org/TR/2001/REC-SVG-20010904/DTD/svg10.dtd">
<svg version="1.0" xmlns="http://www.w3.org/2000/svg"
 width="19843.000000pt" height="15961.000000pt" viewBox="0 0 19843.000000 15961.000000"
 preserveAspectRatio="xMidYMid meet">

<g transform="translate(0.000000,15961.000000) scale(0.100000,-0.100000)"
fill="#000000" stroke="none">
<path d="M98580 112790 c-1789 -102 -3446 -653 -4930 -1641 -1851 -1231 -3246
-3062 -3933 -5164 -90 -274 -119 -377 -197 -690 l-67 -270 -3089 -5 c-2885 -5
-3098 -7 -3229 -23 -565 -72 -1039 -209 -1510 -436 -492 -237 -908 -533 -1300
-926 -221 -220 -378 -407 -549 -652 l-58 -83 2832 0 c2693 0 2832 -1 2826 -17
-4 -10 -1607 -3079 -3562 -6821 -1954 -3741 -3554 -6805 -3554 -6807 0 -3
9371 -5 20825 -5 18126 0 20825 2 20825 14 0 13 -524 8537 -630 10251 -23 358
-45 763 -50 902 -5 138 -17 316 -25 395 -103 952 -484 1834 -1108 2567 -113
133 -370 390 -502 503 -776 661 -1689 1041 -2710 1128 -78 6 -1185 10 -3143
10 -2409 0 -3023 3 -3026 13 -2 6 -25 102 -51 212 -298 1263 -869 2485 -1651
3536 -301 404 -575 721 -949 1095 -390 391 -679 643 -1085 948 -1218 915
-2621 1535 -4101 1812 -353 65 -731 114 -1134 144 -186 15 -969 21 -1165 10z
m855 -4380 c1400 -94 2651 -685 3620 -1710 367 -388 670 -818 909 -1290 94
-184 176 -362 176 -380 0 -7 -1850 -10 -5055 -10 -4275 0 -5055 2 -5055 14 0
19 76 189 159 354 193 385 436 754 721 1092 136 162 460 488 620 624 837 713
1848 1154 2930 1281 289 34 689 44 975 25z"/>
<path d="M67672 101291 c16 -42 6985 -12168 6990 -12163 4 4 1576 2725 3493
6047 1918 3322 3498 6059 3512 6083 l25 42 -7012 0 c-3990 0 -7010 -4 -7008
-9z"/>
<path d="M97365 56370 c-384 -26 -713 -128 -976 -303 -116 -76 -298 -254 -366
-357 -155 -233 -225 -475 -226 -780 0 -286 65 -519 199 -707 98 -138 279 -279
475 -372 202 -95 287 -119 1114 -316 295 -71 596 -149 678 -176 425 -141 649
-315 727 -564 31 -99 39 -291 16 -406 -56 -278 -258 -514 -543 -633 -180 -76
-341 -105 -624 -113 -472 -13 -810 65 -1089 252 -284 190 -444 463 -474 810
-4 39 -9 89 -12 113 l-5 42 -321 0 -321 0 7 -107 c45 -702 332 -1153 914
-1436 226 -110 464 -178 767 -219 197 -27 613 -29 814 -4 307 37 525 98 746
206 353 174 623 469 744 813 90 258 106 579 39 832 -80 305 -297 579 -608 767
-232 140 -468 222 -959 334 -620 141 -737 170 -908 220 -325 96 -476 166 -579
269 -70 69 -116 153 -141 252 -24 98 -21 294 6 396 75 285 307 489 655 577
164 41 305 54 534 47 407 -11 676 -101 883 -295 161 -151 258 -352 307 -634
l17 -98 317 0 318 0 0 49 c0 78 -27 266 -55 381 -115 470 -435 826 -911 1013
-306 121 -738 175 -1159 147z"/>
<path d="M107800 56370 c-604 -47 -1100 -262 -1508 -655 -342 -328 -564 -749
-667 -1260 -53 -265 -60 -345 -59 -735 0 -395 9 -493 70 -768 197 -883 802
-1556 1602 -1783 264 -75 619 -110 915 -90 378 25 648 92 932 231 568 277 989
792 1190 1456 151 496 173 1154 59 1699 -107 504 -340 935 -690 1275 -359 349
-764 545 -1269 614 -141 19 -427 27 -575 16z m552 -589 c593 -122 1048 -553
1258 -1189 177 -538 171 -1256 -14 -1788 -192 -551 -593 -952 -1099 -1098
-146 -42 -253 -58 -447 -63 -262 -8 -448 21 -670 104 -617 230 -1012 757
-1120 1494 -71 479 -36 990 92 1374 219 656 720 1087 1374 1180 145 21 496 13
626 -14z"/>
<path d="M129730 56374 c-759 -51 -1295 -319 -1728 -867 -313 -396 -498 -875
-564 -1462 -18 -163 -15 -609 5 -774 56 -446 192 -837 407 -1166 366 -560 872
-891 1520 -995 568 -90 1098 -15 1516 217 158 87 303 200 456 354 l137 139 10
-33 c12 -36 161 -586 161 -593 0 -2 95 -4 210 -4 l210 0 0 1340 0 1340 -1110
0 -1110 0 0 -270 0 -270 816 0 817 0 -7 -97 c-24 -343 -84 -586 -203 -814
-125 -241 -333 -454 -578 -589 -163 -90 -386 -158 -593 -180 -141 -16 -443 -8
-567 14 -559 101 -971 418 -1219 937 -165 347 -237 732 -223 1199 17 551 142
976 390 1322 330 459 797 688 1407 688 470 0 825 -128 1095 -394 195 -192 324
-422 367 -652 l11 -64 325 0 324 0 -7 67 c-10 95 -59 288 -100 394 -163 422
-488 773 -914 984 -206 103 -500 186 -761 214 -105 12 -414 21 -500 15z"/>
<path d="M66480 53730 l0 -2540 1680 0 1680 0 0 290 0 290 -1345 0 -1345 0 0
2250 0 2250 -335 0 -335 0 0 -2540z"/>
<path d="M70523 54548 c3 -1863 3 -1839 58 -2113 63 -314 210 -600 419 -818
359 -375 835 -539 1565 -540 383 -1 632 35 912 129 107 36 303 132 393 193
392 264 643 708 700 1236 25 241 30 558 30 2058 l0 1577 -335 0 -335 0 0
-1682 c0 -1065 -4 -1723 -10 -1793 -27 -290 -88 -506 -192 -683 -50 -86 -198
-231 -293 -286 -216 -126 -488 -186 -841 -186 -264 0 -457 27 -645 90 -399
133 -644 422 -723 850 -37 202 -39 259 -43 1988 l-4 1702 -330 0 -330 0 4
-1722z"/>
<path d="M75364 56118 c57 -84 435 -639 840 -1232 l735 -1079 -18 -26 c-23
-33 -1673 -2445 -1730 -2529 l-42 -62 382 2 382 3 608 905 c334 498 651 974
705 1058 54 83 101 152 104 152 3 0 34 -51 69 -113 113 -199 235 -387 777
-1204 l533 -803 401 0 c220 0 400 2 400 5 0 3 -398 590 -885 1304 -487 714
-885 1303 -885 1308 0 6 376 560 835 1232 459 672 835 1224 835 1227 0 2 -168
4 -373 4 l-373 0 -329 -487 c-638 -942 -756 -1121 -985 -1496 l-17 -29 -68
124 c-110 199 -248 417 -741 1174 l-466 714 -399 0 -399 0 104 -152z"/>
<path d="M80073 54548 c3 -1863 3 -1839 58 -2113 63 -314 210 -600 419 -818
359 -375 835 -539 1565 -540 383 -1 632 35 912 129 107 36 303 132 393 193
392 264 643 708 700 1236 25 241 30 558 30 2058 l0 1577 -335 0 -335 0 0
-1682 c0 -1065 -4 -1723 -10 -1793 -27 -290 -88 -506 -192 -683 -50 -86 -198
-231 -293 -286 -216 -126 -488 -186 -841 -186 -264 0 -457 27 -645 90 -399
133 -644 422 -723 850 -37 202 -39 259 -43 1988 l-4 1702 -330 0 -330 0 4
-1722z"/>
<path d="M85250 53731 l0 -2541 330 0 330 0 0 1101 0 1100 838 -4 c720 -4 850
-6 932 -21 336 -58 490 -157 608 -391 100 -199 149 -444 172 -860 33 -601 58
-771 132 -892 l20 -33 380 0 380 0 -42 48 c-125 141 -176 358 -235 1010 -42
463 -58 587 -90 709 -91 345 -314 582 -619 659 -37 9 -64 20 -59 23 4 4 44 22
88 41 340 143 577 394 689 730 109 325 97 742 -30 1048 -157 379 -491 648
-929 750 -240 56 -216 55 -1607 59 l-1288 4 0 -2540z m2540 1937 c142 -26 211
-47 310 -96 79 -38 110 -61 181 -132 71 -71 94 -101 132 -180 75 -151 90 -223
91 -430 0 -148 -3 -188 -22 -262 -76 -305 -276 -503 -587 -582 -182 -46 -247
-49 -1137 -53 l-848 -4 0 881 0 881 898 -4 c747 -3 911 -7 982 -19z"/>
<path d="M89710 56266 c0 -2 443 -676 985 -1498 l985 -1493 0 -1042 0 -1043
335 0 335 0 0 1043 0 1042 966 1480 c531 814 970 1488 975 1498 9 16 -11 17
-370 17 l-379 0 -636 -1024 c-637 -1026 -746 -1204 -826 -1349 l-42 -78 -112
188 c-61 103 -406 655 -766 1226 l-654 1037 -398 0 c-219 0 -398 -2 -398 -4z"/>
<path d="M100600 53730 l0 -2540 335 0 335 0 0 1190 0 1190 1343 -2 1342 -3 3
-1187 2 -1188 330 0 330 0 0 2540 0 2540 -330 0 -330 0 0 -1060 0 -1060 -1345
0 -1345 0 0 1060 0 1060 -335 0 -335 0 0 -2540z"/>
<path d="M111350 53731 l0 -2541 335 0 335 0 0 1045 0 1045 748 0 c959 1 1111
9 1345 71 384 103 718 376 871 712 181 396 196 968 37 1355 -173 420 -553 721
-1014 802 -235 41 -270 42 -1479 47 l-1178 4 0 -2540z m2415 1932 c191 -44
344 -123 458 -238 102 -102 168 -221 208 -370 30 -113 38 -364 15 -492 -36
-207 -102 -339 -236 -474 -107 -107 -191 -157 -340 -203 -195 -59 -186 -59
-1052 -63 l-798 -4 0 936 0 936 828 -4 c792 -3 831 -4 917 -24z"/>
<path d="M115960 53731 l0 -2541 335 0 335 0 0 1045 0 1045 748 0 c959 1 1111
9 1345 71 384 103 718 376 871 712 181 396 196 968 37 1355 -173 420 -553 721
-1014 802 -235 41 -270 42 -1479 47 l-1178 4 0 -2540z m2415 1932 c191 -44
344 -123 458 -238 102 -102 168 -221 208 -370 30 -113 38 -364 15 -492 -36
-207 -102 -339 -236 -474 -107 -107 -191 -157 -340 -203 -195 -59 -186 -59
-1052 -63 l-798 -4 0 936 0 936 828 -4 c792 -3 831 -4 917 -24z"/>
<path d="M120570 53730 l0 -2540 335 0 335 0 0 2540 0 2540 -335 0 -335 0 0
-2540z"/>
<path d="M122420 53730 l0 -2540 321 0 321 0 -5 1748 c-4 1637 -11 2054 -36
2387 -5 61 -7 111 -6 113 2 2 32 -53 68 -121 103 -194 234 -418 428 -727 201
-322 293 -462 1424 -2174 l810 -1226 368 0 367 0 0 2540 0 2540 -316 0 -316 0
5 -1742 c3 -981 10 -1839 15 -1963 6 -121 14 -299 17 -395 6 -162 5 -173 -10
-150 -8 14 -64 111 -123 215 -250 438 -321 550 -1611 2518 l-995 1517 -363 0
-363 0 0 -2540z"/>
<path d="M95200 47237 l-25 -13 -5 -1619 -5 -1620 -24 -53 c-29 -64 -87 -116
-146 -131 -65 -16 -951 -15 -1031 2 -86 18 -151 59 -175 110 -18 40 -19 83
-19 1012 0 862 -2 973 -16 993 -15 21 -21 22 -173 22 -110 0 -162 -4 -174 -12
-15 -12 -17 -90 -20 -973 -2 -725 -6 -969 -15 -996 -20 -60 -67 -115 -119
-140 l-48 -24 -1665 0 c-1613 0 -1667 1 -1720 19 -70 24 -160 112 -178 172 -9
31 -12 273 -12 970 0 728 -3 934 -13 954 -13 25 -13 25 -178 28 -145 2 -168 0
-180 -14 -12 -14 -15 -179 -19 -988 l-5 -971 -31 -54 c-23 -42 -43 -62 -85
-85 l-54 -31 -300 0 c-260 0 -308 2 -358 18 -76 23 -131 73 -146 132 -8 31
-11 312 -11 934 0 795 -2 891 -16 905 -13 13 -43 16 -172 16 -86 0 -164 -5
-172 -10 -13 -8 -16 -124 -20 -907 -5 -832 -6 -901 -23 -943 -21 -54 -58 -94
-112 -123 -38 -21 -56 -22 -312 -25 -298 -3 -357 3 -443 46 -43 21 -60 36 -77
72 l-23 44 0 972 c0 911 -1 973 -17 993 -17 21 -25 22 -183 19 -164 -3 -164
-3 -177 -28 -10 -20 -13 -228 -13 -966 0 -1020 1 -996 -55 -1070 -14 -19 -45
-44 -68 -57 l-42 -22 -1747 -3 -1747 -2 -3 662 -4 663 -26 97 c-53 194 -147
354 -295 501 -102 103 -201 173 -326 232 -286 135 -644 135 -934 0 -304 -142
-533 -413 -621 -733 l-27 -97 0 -390 0 -390 28 -100 c52 -193 147 -355 292
-500 190 -191 405 -295 670 -325 50 -5 264 -10 478 -10 l387 0 0 -54 c0 -94
-27 -206 -71 -296 -57 -115 -188 -248 -299 -303 -129 -64 -155 -67 -525 -67
-246 0 -336 -4 -355 -13 -25 -13 -25 -13 -28 -179 l-2 -167 24 -17 c23 -14 65
-15 388 -12 350 5 366 6 458 30 181 49 316 125 456 260 112 108 174 190 234
313 64 130 91 239 98 387 l5 118 1751 2 1751 3 78 22 c97 28 198 80 256 133
24 22 47 40 51 40 3 0 17 -12 31 -26 35 -37 124 -88 204 -117 125 -44 200 -52
485 -52 224 0 276 3 335 19 96 25 200 77 262 132 l52 45 53 -41 c159 -127 352
-167 742 -157 159 4 217 9 277 25 107 29 188 72 261 141 l63 59 54 -49 c66
-61 208 -131 316 -156 76 -17 168 -18 1725 -18 l1645 0 80 23 c101 29 200 81
250 132 22 22 45 39 51 40 6 0 21 -12 35 -26 35 -37 124 -88 204 -117 136 -48
186 -52 680 -52 522 0 549 3 698 77 145 73 254 209 304 383 17 56 18 171 21
1700 2 1412 0 1643 -12 1660 -13 18 -29 20 -163 23 -107 2 -155 -1 -173 -11z
m-13327 -1593 c292 -66 524 -316 567 -611 5 -38 10 -325 10 -655 l0 -588 -416
0 c-346 0 -427 3 -487 16 -289 65 -519 310 -566 605 -14 83 -14 545 0 629 14
86 50 189 91 257 77 128 236 264 365 313 135 51 302 64 436 34z"/>
<path d="M96460 47237 l-25 -13 -3 -1894 -2 -1895 21 -17 c18 -15 43 -18 170
-18 136 0 151 2 169 20 20 20 20 33 20 1903 0 1609 -2 1886 -14 1903 -13 17
-29 19 -163 22 -107 2 -155 -1 -173 -11z"/>
<path d="M111520 47237 l-25 -13 -3 -1634 c-2 -1607 -2 -1636 18 -1715 30
-121 74 -199 160 -286 87 -88 175 -137 297 -166 75 -17 218 -18 3243 -18
l3165 0 40 21 c22 11 54 40 70 63 l30 43 3 716 c3 744 0 829 -38 977 -26 101
-114 280 -179 365 -64 84 -199 214 -280 269 -230 157 -516 220 -801 176 -231
-35 -419 -128 -593 -294 -208 -198 -321 -429 -348 -708 -18 -180 -6 -634 19
-748 34 -156 102 -303 201 -436 l41 -54 -2222 -3 c-1575 -2 -2236 1 -2268 8
-72 18 -115 52 -147 117 l-28 58 -5 1622 c-4 1311 -7 1624 -18 1635 -19 19
-298 23 -332 5z m6105 -1611 c197 -67 355 -208 442 -394 62 -133 63 -142 63
-825 l0 -618 -442 3 -443 3 -80 28 c-249 88 -449 315 -494 561 -17 90 -14 615
3 696 59 277 282 502 561 566 39 9 103 12 185 10 103 -3 139 -8 205 -30z"/>
<path d="M93037 47012 c-15 -16 -17 -46 -17 -210 0 -239 -16 -222 200 -222
216 0 200 -18 200 224 0 174 -2 195 -18 209 -16 14 -44 17 -184 17 -147 0
-167 -2 -181 -18z"/>
<path d="M93750 47010 c-19 -19 -20 -33 -20 -205 0 -241 -14 -225 200 -225
214 0 200 -16 200 225 0 241 14 225 -200 225 -147 0 -162 -2 -180 -20z"/>
<path d="M99428 47019 c-16 -9 -18 -30 -18 -209 0 -167 2 -201 16 -214 23 -23
335 -24 358 -1 24 24 28 69 24 245 -3 146 -5 163 -22 176 -24 17 -330 20 -358
3z"/>
<path d="M100136 47014 c-13 -13 -16 -46 -16 -209 0 -163 3 -196 16 -209 22
-22 330 -24 360 -2 18 13 19 28 19 211 0 183 -1 198 -19 211 -30 22 -338 20
-360 -2z"/>
<path d="M117150 47010 c-19 -19 -20 -33 -20 -205 0 -241 -14 -225 200 -225
214 0 200 -16 200 225 0 241 14 225 -200 225 -147 0 -162 -2 -180 -20z"/>
<path d="M78112 46988 c-8 -8 -12 -66 -12 -194 0 -153 3 -185 16 -198 13 -13
44 -16 179 -16 135 0 166 3 179 16 13 13 16 45 16 198 0 128 -4 186 -12 194
-8 8 -63 12 -183 12 -120 0 -175 -4 -183 -12z"/>
<path d="M78822 46988 c-8 -8 -12 -66 -12 -193 0 -164 2 -184 18 -198 16 -14
44 -17 178 -17 122 0 165 3 180 14 17 13 19 30 22 186 5 236 19 220 -201 220
-121 0 -177 -4 -185 -12z"/>
<path d="M109305 46234 c-265 -39 -502 -158 -686 -345 -71 -72 -169 -211 -207
-294 -22 -48 -26 -51 -77 -63 -243 -57 -462 -241 -574 -484 -70 -150 -74 -176
-78 -527 -6 -402 8 -499 93 -661 16 -30 30 -58 32 -63 2 -4 -754 -6 -1680 -5
-1581 3 -1686 4 -1735 21 -60 20 -106 56 -131 101 -16 28 -17 110 -22 1019 -4
863 -7 989 -20 997 -20 13 -320 13 -340 0 -13 -8 -16 -132 -20 -982 -5 -910
-6 -976 -23 -1013 -23 -51 -61 -91 -112 -118 l-40 -22 -1262 -3 -1261 -2 -5
642 c-4 602 -5 649 -24 733 -52 229 -153 406 -326 572 -181 173 -388 273 -627
303 -349 42 -663 -60 -913 -299 -208 -198 -321 -429 -348 -708 -18 -181 -6
-634 19 -748 42 -194 134 -367 275 -520 192 -208 429 -327 705 -355 74 -8 668
-10 1947 -8 1719 3 1844 5 1905 21 91 25 196 79 257 133 l52 45 53 -41 c106
-85 235 -132 408 -150 131 -13 4923 -13 5045 0 50 6 126 20 170 31 431 111
784 500 850 936 18 119 21 748 4 869 -14 100 -51 229 -93 318 -111 242 -364
487 -605 587 -141 59 -249 80 -421 84 -85 2 -168 1 -185 -1z m357 -405 c210
-58 392 -210 493 -411 75 -149 80 -189 80 -603 0 -306 -3 -370 -18 -427 -82
-324 -376 -576 -694 -595 l-93 -6 0 479 c0 263 -5 511 -10 549 -43 301 -255
573 -532 681 -78 31 -78 30 3 119 87 95 215 176 331 210 135 39 308 40 440 4z
m-9397 -203 c197 -67 355 -208 442 -394 62 -133 63 -142 63 -825 l0 -618 -442
3 -443 3 -84 29 c-197 69 -377 242 -454 436 -41 104 -47 165 -47 469 0 307 7
364 53 478 69 171 229 331 400 400 104 42 171 53 307 49 103 -3 139 -8 205
-30z m8415 -467 c123 -28 253 -138 317 -266 l38 -77 3 -513 3 -513 -295 0
c-261 0 -301 2 -355 19 -175 54 -300 206 -321 391 -13 109 -13 430 0 540 13
114 60 210 142 291 126 124 287 168 468 128z"/>
<path d="M78512 46040 c-441 -62 -819 -396 -932 -825 -53 -203 -54 -765 0
-974 96 -378 422 -706 795 -801 126 -32 252 -40 650 -40 l386 0 -7 -67 c-16
-176 -77 -306 -199 -429 -63 -64 -98 -89 -165 -122 -151 -74 -128 -72 -850
-72 -608 0 -650 1 -727 20 -280 67 -512 305 -567 582 -13 63 -16 162 -16 546
0 448 -1 471 -19 493 -19 23 -23 24 -176 24 -153 0 -157 -1 -176 -24 -18 -22
-19 -45 -19 -465 0 -242 5 -484 10 -536 28 -264 126 -473 314 -668 185 -192
379 -298 626 -343 107 -20 1406 -20 1495 -1 226 50 405 151 566 320 133 138
218 288 261 458 l23 89 0 955 0 955 -27 100 c-109 401 -451 726 -853 810 -94
20 -303 28 -393 15z m383 -414 c235 -75 420 -271 488 -515 20 -73 21 -100 25
-698 l3 -623 -418 0 c-479 0 -505 3 -651 75 -163 81 -315 254 -371 422 -33 99
-41 182 -40 448 0 265 9 353 49 457 58 155 208 317 364 393 123 61 192 75 346
71 101 -3 141 -9 205 -30z"/>
<path d="M119660 45920 c-20 -20 -20 -33 -20 -1415 0 -1237 -2 -1405 -16
-1473 -41 -197 -145 -300 -341 -338 -48 -9 -141 -14 -262 -14 -153 0 -191 -3
-209 -16 -21 -15 -22 -21 -22 -179 l0 -165 25 -16 c22 -15 52 -16 253 -11 241
6 318 17 441 63 102 38 199 101 276 178 83 83 135 165 175 274 62 171 60 105
60 1678 0 1407 0 1433 -19 1444 -11 5 -86 10 -170 10 -138 0 -153 -2 -171 -20z"/>
<path d="M103270 42870 c-19 -19 -20 -33 -20 -208 0 -170 2 -191 18 -205 16
-14 44 -17 180 -17 217 0 202 -16 202 225 0 241 14 225 -200 225 -147 0 -162
-2 -180 -20z"/>
<path d="M103980 42870 c-19 -19 -20 -33 -20 -205 0 -241 -14 -225 198 -225
218 0 202 -17 202 221 0 246 15 229 -200 229 -147 0 -162 -2 -180 -20z"/>
</g>
</svg>
